<svg id="Capa_1" data-name="Capa 1" xmlns="http://www.w3.org/2000/svg" viewBox="0 0 450 204"><defs><style>.cls-1{fill:#1b1f26;}.cls-2{fill:none;stroke:#707070;}</style></defs><title>pesas</title><g id="Grupo_1" data-name="Grupo 1"><g id="Elipse_1" data-name="Elipse 1"><ellipse class="cls-1" cx="32.5" cy="102" rx="32.5" ry="29"/><ellipse class="cls-2" cx="32.5" cy="102" rx="32" ry="28.5"/></g><g id="Elipse_2" data-name="Elipse 2"><ellipse class="cls-1" cx="417.5" cy="102" rx="32.5" ry="29"/><ellipse class="cls-2" cx="417.5" cy="102" rx="32" ry="28.5"/></g><g id="Rectángulo_5" data-name="Rectángulo 5"><rect class="cls-1" x="29" y="37" width="51" height="130" rx="8"/><rect class="cls-2" x="29.5" y="37.5" width="50" height="129" rx="7.5"/></g><g id="Rectángulo_8" data-name="Rectángulo 8"><rect class="cls-1" x="370" y="37" width="51" height="130" rx="8"/><rect class="cls-2" x="370.5" y="37.5" width="50" height="129" rx="7.5"/></g><g id="Rectángulo_6" data-name="Rectángulo 6"><rect class="cls-1" x="80" width="51" height="204" rx="8"/><rect class="cls-2" x="80.5" y="0.5" width="50" height="203" rx="7.5"/></g><g id="Rectángulo_9" data-name="Rectángulo 9"><rect class="cls-1" x="319" width="51" height="204" rx="8"/><rect class="cls-2" x="319.5" y="0.5" width="50" height="203" rx="7.5"/></g><g id="Rectángulo_7" data-name="Rectángulo 7"><rect class="cls-1" x="131" y="73" width="188" height="58" rx="8"/><rect class="cls-2" x="131.5" y="73.5" width="187" height="57" rx="7.5"/></g></g></svg>